<svg xmlns="http://www.w3.org/2000/svg" width="1600" height="171" viewBox="0 0 1600 171"><g transform="translate(2123 -2840)"><path d="M281,2853.292s138.885,58.931,395.966,17.679,492.934-91.932,842,0,362.036,16.5,362.036,16.5v84.861H281Z" transform="translate(-2404 38.667)" fill="#09f" opacity="0.1"/><path d="M0,153.119V48.779c261.614-40.67,505.194-86.96,861.685,2.9,365,92,378.565,16.513,378.565,16.513v84.928Z" transform="translate(-2123 2840)" fill="#09f" opacity="0.15"/><path d="M0,153.123V33.989S154.464,92.966,440.381,51.682c268.03-38.7,515.291-85.7,865-15.634V153.123Z" transform="translate(-1828.872 2841.996)" fill="#09f" opacity="0.1"/><path d="M281,2836.069s175.194-43.941,451.83,0,426.823,44.469,718.081,0,430.089,23,430.089,23v126.139H281Z" transform="translate(-2404 25.46)" fill="#09f" opacity="0.2"/><path d="M281,2836.069s175.194-43.941,451.83,0,426.823,44.469,718.081,0,430.089,23,430.089,23v111.139H281Z" transform="translate(-2404 40.46)" fill="#09f"/></g></svg>