<svg xmlns="http://www.w3.org/2000/svg" width="16.717" height="16.96" viewBox="0 0 16.717 16.96"><g transform="translate(-0.208)"><path d="M20.863,3.579a1.173,1.173,0,0,0,1.176-1.174V1.176a1.176,1.176,0,1,0-2.352,0V2.406A1.173,1.173,0,0,0,20.863,3.579Z" transform="translate(-8.135)" fill="#09f"/><path d="M16.907,3.473H14.539v.6a1.791,1.791,0,1,1-3.581,0v-.6H6.18v.6a1.791,1.791,0,1,1-3.582,0v-.6l-2.39-.03V18.4H15.732l1.193,0ZM15.731,17.206H1.4V7.653H15.732v9.553Z" transform="translate(0 -1.438)" fill="#09f"/><path d="M6.511,3.579A1.174,1.174,0,0,0,7.688,2.405V1.176a1.176,1.176,0,1,0-2.352,0V2.406A1.172,1.172,0,0,0,6.511,3.579Z" transform="translate(-2.142)" fill="#09f"/><rect width="1.882" height="1.661" transform="translate(6.183 7.497)" fill="#09f"/><rect width="1.883" height="1.661" transform="translate(9.226 7.497)" fill="#09f"/><rect width="1.882" height="1.661" transform="translate(12.047 7.497)" fill="#09f"/><rect width="1.882" height="1.66" transform="translate(6.183 10.255)" fill="#09f"/><rect width="1.883" height="1.66" transform="translate(9.226 10.255)" fill="#09f"/><rect width="1.882" height="1.66" transform="translate(12.047 10.255)" fill="#09f"/><rect width="1.882" height="1.66" transform="translate(6.183 13.068)" fill="#09f"/><rect width="1.881" height="1.66" transform="translate(3.194 10.255)" fill="#09f"/><rect width="1.881" height="1.66" transform="translate(3.194 13.068)" fill="#09f"/><rect width="1.883" height="1.66" transform="translate(9.226 13.068)" fill="#09f"/><rect width="1.882" height="1.66" transform="translate(12.047 13.068)" fill="#09f"/></g></svg>