<svg xmlns="http://www.w3.org/2000/svg" viewBox="0 0 319.664 568.371">
  <defs>
    <style>
      .cls-1 {
        fill: #ff6060;
      }

      .cls-2 {
        fill: #fc6;
      }

      .cls-3 {
        fill: #9c6;
      }
    </style>
  </defs>
  <g id="Group_1194" data-name="Group 1194" transform="translate(-699 -2755)">
    <g id="Group_13" data-name="Group 13" transform="translate(-1374.295 3422)">
      <path id="Intersection_6" data-name="Intersection 6" class="cls-1" d="M113.642,14.675c-17.086,20.779-42.1,11.9-77.45,17.914C15.461,36.117,5.059,53.245,0,66.807H171.875V.073C170.113.027,168.266,0,166.357,0,147.918,0,123.634,2.524,113.642,14.675Z" transform="translate(2245.17 -600.193) rotate(180)"/>
      <path id="Intersection_2" data-name="Intersection 2" class="cls-2" d="M64.646,2.939c-16.432,7.441-14.8,39.125-15.6,43.765s1.5,22.758-33.82,56.37C2.406,115.278-.861,124.289.18,130.818H72.429V0A65.063,65.063,0,0,0,64.646,2.939Z" transform="translate(2145.724 -536.182) rotate(180)"/>
    </g>
    <path id="Intersection_7" data-name="Intersection 7" class="cls-3" d="M235.6,369.988V224.617c-6.244,2.753-14.494,8.041-15.089,16.9-.966,14.379,1.851,54.137-32.933,66.171s-80.216,3.093-112.31,35.76A90.012,90.012,0,0,1,25,369.988Z" transform="translate(783.059 2953.384)"/>
  </g>
</svg>
