<svg xmlns="http://www.w3.org/2000/svg" width="14.228" height="18" viewBox="0 0 14.228 18"><path d="M94.133,2.119h-2.4V.558A.558.558,0,0,0,91.162,0,.085.085,0,0,0,91.1.02.077.077,0,0,0,91.061,0h-5.73a.55.55,0,0,0-.558.558V2.119H82.36a1.212,1.212,0,0,0-1.227,1.227V5.354H82.2V16.783A1.2,1.2,0,0,0,83.415,18h9.664a1.2,1.2,0,0,0,1.227-1.217V5.354h1.055V3.347A1.212,1.212,0,0,0,94.133,2.119Zm-8.244-1H90.6v1H85.889ZM93.18,16.783c0,.071-.031.1-.1.1H83.415c-.071,0-.1-.03-.1-.1V5.354H93.18ZM94.235,4.239H82.259V3.347c0-.071.031-.112.1-.112H94.133c.071,0,.1.041.1.112Z" transform="translate(-81.133)" fill="#ff6060"/><rect width="1.126" height="9.228" transform="translate(9.157 6.663)" fill="#ff6060"/><rect width="1.126" height="9.228" transform="translate(6.561 6.663)" fill="#ff6060"/><rect width="1.126" height="9.228" transform="translate(3.965 6.663)" fill="#ff6060"/></svg>