<svg xmlns="http://www.w3.org/2000/svg" width="22" height="22" viewBox="0 0 22 22">
  <g id="Group_904" data-name="Group 904" transform="translate(301 -1701)">
    <circle id="Ellipse_90" data-name="Ellipse 90" cx="11" cy="11" r="11" transform="translate(-301 1701)" fill="#ff6060"/>
    <g id="trash" transform="translate(-313.269 1707)">
      <g id="Group_796" data-name="Group 796" transform="translate(18.269)">
        <path id="Path_146" data-name="Path 146" d="M28.205,1.725a.233.233,0,0,0-.163-.059H25.847L25.35.579a.928.928,0,0,0-.383-.41A1.066,1.066,0,0,0,24.405,0H22.133a1.066,1.066,0,0,0-.561.169.928.928,0,0,0-.384.41l-.5,1.087H18.5a.233.233,0,0,0-.163.059.194.194,0,0,0-.064.15v.417a.194.194,0,0,0,.064.15A.233.233,0,0,0,18.5,2.5h.682V8.7a1.349,1.349,0,0,0,.334.921,1.031,1.031,0,0,0,.8.381h5.909a1.018,1.018,0,0,0,.8-.394,1.4,1.4,0,0,0,.334-.934V2.5h.682a.232.232,0,0,0,.163-.059.194.194,0,0,0,.064-.15V1.875A.194.194,0,0,0,28.205,1.725ZM22.026.9a.2.2,0,0,1,.121-.072H24.4A.2.2,0,0,1,24.519.9l.341.762H21.678Zm4.425,7.767a.683.683,0,0,1-.05.264.574.574,0,0,1-.1.176c-.036.037-.06.055-.075.055H20.314c-.014,0-.039-.018-.075-.055a.571.571,0,0,1-.1-.176.685.685,0,0,1-.05-.264V2.5h6.364V8.672Z" transform="translate(-18.269)" fill="#fff"/>
        <path id="Path_147" data-name="Path 147" d="M128.1,168.3h.385a.185.185,0,0,0,.193-.193v-3.466a.185.185,0,0,0-.193-.192H128.1a.185.185,0,0,0-.193.192v3.466a.185.185,0,0,0,.193.193Z" transform="translate(-125.136 -160.496)" fill="#fff"/>
        <path id="Path_148" data-name="Path 148" d="M201.187,168.3h.385a.185.185,0,0,0,.193-.193v-3.466a.185.185,0,0,0-.193-.192h-.385a.185.185,0,0,0-.193.192v3.466a.185.185,0,0,0,.193.193Z" transform="translate(-196.379 -160.496)" fill="#fff"/>
        <path id="Path_149" data-name="Path 149" d="M274.276,168.3h.385a.185.185,0,0,0,.192-.193v-3.466a.185.185,0,0,0-.192-.192h-.385a.185.185,0,0,0-.193.192v3.466a.185.185,0,0,0,.193.193Z" transform="translate(-267.622 -160.496)" fill="#fff"/>
      </g>
    </g>
  </g>
</svg>
