<svg xmlns="http://www.w3.org/2000/svg" width="24.971" height="24.971" viewBox="0 0 24.971 24.971"><g transform="translate(-193.168 -411.563)"><g transform="translate(205.283 436.533) rotate(-135)"><path d="M15.628,9.392,15,8.767,7.37,1.134A3.876,3.876,0,0,0,1.748,6.469a.785.785,0,0,0,.065.079l6.5,6.5a2.641,2.641,0,0,0,3.735-3.735L8.328,5.594a.921.921,0,0,0-1.3,1.3l3.722,3.722a.8.8,0,0,1-1.13,1.13l-6.43-6.43A2.037,2.037,0,0,1,6.067,2.436L13.7,10.07l.625.625a3.307,3.307,0,1,1-4.677,4.677L1.572,7.3A.921.921,0,1,0,.27,8.6l8.076,8.076a5.149,5.149,0,1,0,7.282-7.282Z" transform="translate(0 0)" fill="#e4e4e4"/></g></g></svg>