<svg xmlns="http://www.w3.org/2000/svg" width="18.342" height="18" viewBox="0 0 18.342 18"><path d="M23.373,114.3H6.338a.641.641,0,0,0-.638.638.652.652,0,0,0,.638.638h17.05a.641.641,0,0,0,.638-.638A.655.655,0,0,0,23.373,114.3Z" transform="translate(-5.684 -97.577)" fill="#b2b2b2"/><path d="M5.616,17.971,5.6,21.007a.659.659,0,0,0,.187.467.624.624,0,0,0,.452.187l3.021-.016a.624.624,0,0,0,.452-.187L20.143,11.026a.658.658,0,0,0,0-.919l-2.99-3.021a.658.658,0,0,0-.919,0l-2.086,2.1L5.8,17.519A.694.694,0,0,0,5.616,17.971ZM16.7,8.457l2.1,2.1-1.183,1.183-2.1-2.1ZM6.908,18.251,14.6,10.559l2.1,2.1L9.01,20.338l-2.118.016Z" transform="translate(-5.6 -6.9)" fill="#b2b2b2"/></svg>