<svg xmlns="http://www.w3.org/2000/svg" width="20.882" height="20" viewBox="0 0 20.882 20"><g transform="translate(-243 -414)"><g transform="translate(243 414)"><g transform="translate(0 0)"><path d="M18.069,7.23H4.814A3.818,3.818,0,0,0,1,11.044v8.712a3.818,3.818,0,0,0,3.814,3.814h8.127l4.307,3.437a.763.763,0,0,0,1.3-.539V23.539a3.819,3.819,0,0,0,3.333-3.783V11.044A3.818,3.818,0,0,0,18.069,7.23Zm2.288,12.526a2.291,2.291,0,0,1-2.288,2.288h-.282a.763.763,0,0,0-.763.763v1.819L13.8,22.267a.762.762,0,0,0-.539-.223H4.814a2.291,2.291,0,0,1-2.288-2.288V11.044A2.291,2.291,0,0,1,4.814,8.756H18.069a2.291,2.291,0,0,1,2.288,2.288Z" transform="translate(-1 -7.23)" fill="#e4e4e4"/><path d="M85.862,95.743H75.5a.763.763,0,0,0,0,1.525H85.862a.763.763,0,0,0,0-1.525Z" transform="translate(-70.242 -90.342)" fill="#e4e4e4"/><path d="M85.862,165.743H75.5a.763.763,0,1,0,0,1.525H85.862a.763.763,0,0,0,0-1.525Z" transform="translate(-70.242 -156.071)" fill="#e4e4e4"/></g></g></g></svg>