<svg xmlns="http://www.w3.org/2000/svg" width="33" height="32" viewBox="0 0 33 32"><g transform="translate(33.066 39.8) rotate(180)"><g transform="translate(0 7.8)"><rect width="9.5" height="23.5" rx="1" transform="translate(0.066 8.5)" fill="#fff"/><path d="M353.32,216.4h-7.347a1.07,1.07,0,0,0-1.073,1.073v15.6a1.07,1.07,0,0,0,1.073,1.073h7.347a1.07,1.07,0,0,0,1.073-1.073v-15.6A1.07,1.07,0,0,0,353.32,216.4Zm-6.274,2.146h1.668l-1.668,1.668Zm0,3.376,3.369-3.369h1.7l-5.071,5.071v-1.7Zm5.2,10.074h-1.675l1.675-1.675Zm0-3.376L348.871,232h-1.7l5.071-5.071v1.7Zm0-3.4-5.2,5.2v-1.7l5.2-5.2Zm0-3.4-5.2,5.2v-1.7l5.2-5.2Z" transform="translate(-321.327 -202.143)" fill="#fff"/><path d="M180.827,7.8h-7.354A1.071,1.071,0,0,0,172.4,8.873V38.727a1.071,1.071,0,0,0,1.073,1.073h7.347a1.071,1.071,0,0,0,1.073-1.073V8.873A1.06,1.06,0,0,0,180.827,7.8Z" transform="translate(-160.617 -7.8)" fill="#fff"/></g></g></svg>