<svg xmlns="http://www.w3.org/2000/svg" width="22" height="22" viewBox="0 0 22 22">
  <g id="Group_903" data-name="Group 903" transform="translate(301 -1656)">
    <circle id="Ellipse_86" data-name="Ellipse 86" cx="11" cy="11" r="11" transform="translate(-301 1656)" fill="#09f"/>
    <g id="right-thin-arrowheads" transform="translate(-294 1661.663)">
      <path id="Path_145" data-name="Path 145" d="M6.694,5.337,3.651,2.293A.56.56,0,0,1,4.443,1.5l3.44,3.44a.56.56,0,0,1,0,.792l-3.44,3.44a.56.56,0,0,1-.792-.792ZM.164,8.38a.56.56,0,0,0,.792.792L4.4,5.733a.56.56,0,0,0,0-.792L.956,1.5a.56.56,0,0,0-.792.792L3.207,5.337Z" fill="#fff"/>
    </g>
  </g>
</svg>
