<svg xmlns="http://www.w3.org/2000/svg" width="18.1" height="18.101" viewBox="0 0 18.1 18.101"><g transform="translate(0.05 0.05)"><path d="M7.945,352H.7a.7.7,0,0,0-.7.7v4.219a.7.7,0,0,0,.7.7H7.945a.7.7,0,0,0,.7-.7V352.7A.7.7,0,0,0,7.945,352Zm-.7,4.219H1.406v-2.813H7.242Z" transform="translate(0 -339.625)" fill="#09f" stroke="#fff" stroke-width="0.1"/><path d="M7.945,0H.7A.7.7,0,0,0,0,.7V10.969a.7.7,0,0,0,.7.7H7.945a.7.7,0,0,0,.7-.7V.7A.7.7,0,0,0,7.945,0Zm-.7,10.266H1.406V1.406H7.242Z" fill="#09f" stroke="#fff" stroke-width="0.1"/><path d="M273.945,0H266.7a.7.7,0,0,0-.7.7V4.922a.7.7,0,0,0,.7.7h7.242a.7.7,0,0,0,.7-.7V.7A.7.7,0,0,0,273.945,0Zm-.7,4.219h-5.836V1.406h5.836Z" transform="translate(-256.648)" fill="#09f" stroke="#fff" stroke-width="0.1"/><path d="M273.945,180H266.7a.7.7,0,0,0-.7.7v10.266a.7.7,0,0,0,.7.7h7.242a.7.7,0,0,0,.7-.7V180.7A.7.7,0,0,0,273.945,180Zm-.7,10.266h-5.836v-8.86h5.836Z" transform="translate(-256.648 -173.672)" fill="#09f" stroke="#fff" stroke-width="0.1"/></g></svg>