<svg xmlns="http://www.w3.org/2000/svg" width="22" height="22" viewBox="0 0 22 22">
  <g id="Group_804" data-name="Group 804" transform="translate(91 -1252)">
    <circle id="Ellipse_91" data-name="Ellipse 91" cx="11" cy="11" r="11" transform="translate(-91 1252)" fill="#9c6"/>
    <g id="inbox" transform="translate(-85.375 1201.26)">
      <g id="Group_798" data-name="Group 798" transform="translate(4.086 63.024)">
        <g id="Group_797" data-name="Group 797">
          <path id="Path_150" data-name="Path 150" d="M186.954,332.734h-2.506a.343.343,0,0,0-.343.343v.769a.343.343,0,0,0,.343.343h2.507a.343.343,0,0,0,.343-.343v-.769A.343.343,0,0,0,186.954,332.734Zm-.1,1.013h-2.311v-.573h2.311Z" transform="translate(-184.105 -332.734)" fill="#fff" stroke="#fff" stroke-width="0.2"/>
        </g>
      </g>
      <g id="Group_800" data-name="Group 800" transform="translate(0 56.902)">
        <g id="Group_799" data-name="Group 799">
          <path id="Path_151" data-name="Path 151" d="M11.253,61.121l0,0L9.605,57.854a.776.776,0,0,0-.7-.428H8.6v-.3a.22.22,0,0,0-.22-.22H2.989a.22.22,0,0,0-.22.22v.3H2.455a.776.776,0,0,0-.7.428L.108,61.119l0,0a.767.767,0,0,0-.112.4v3.45a.772.772,0,0,0,.771.771h9.822a.772.772,0,0,0,.771-.771V61.52A.767.767,0,0,0,11.253,61.121ZM8.6,57.915h.314a.289.289,0,0,1,.259.159l1.352,2.674H9.6v-.823a.22.22,0,0,0-.22-.22H9.108V58.524a.22.22,0,0,0-.22-.22H8.6Zm.565,2.231v.6H8a.509.509,0,0,0-.463.3l-.317.7a.019.019,0,0,1-.017.011H4.163a.019.019,0,0,1-.017-.011l-.317-.7a.509.509,0,0,0-.463-.3H2.2v-.6Zm-5.951-2.8H8.155V58.3H3.21Zm5.458,1.4v.961H2.7v-.961ZM2.2,58.075a.289.289,0,0,1,.259-.159h.314V58.3H2.476a.22.22,0,0,0-.22.22v1.181H1.984a.22.22,0,0,0-.22.22v.823H.844Zm8.4,7.177H.771a.282.282,0,0,1-.282-.282V61.52a.282.282,0,0,1,.282-.282H3.366a.019.019,0,0,1,.017.011l.317.7a.509.509,0,0,0,.463.3H7.2a.509.509,0,0,0,.463-.3l.317-.7h0A.019.019,0,0,1,8,61.238h2.595a.282.282,0,0,1,.282.282v3.45h0A.282.282,0,0,1,10.593,65.251Z" transform="translate(0 -56.902)" fill="#fff" stroke="#fff" stroke-width="0.2"/>
        </g>
      </g>
    </g>
  </g>
</svg>
