<svg xmlns="http://www.w3.org/2000/svg" width="21.869" height="24" viewBox="0 0 21.869 24"><path d="M18.918,16.176V10.36a8.023,8.023,0,0,0-5.173-7.5c0-.014,0-.027,0-.041a2.812,2.812,0,1,0-5.625,0c0,.014,0,.028,0,.041a8.023,8.023,0,0,0-5.173,7.5v5.816A4.787,4.787,0,0,0,0,20.592v.017a.7.7,0,0,0,.7.7H7.624a3.382,3.382,0,0,0,6.62,0h6.921a.7.7,0,0,0,.7-.7v-.017a4.787,4.787,0,0,0-2.951-4.416ZM1.476,19.906a3.38,3.38,0,0,1,3.3-2.688H17.089a3.379,3.379,0,0,1,3.3,2.688Zm9.458-16.15a6.6,6.6,0,0,1,6.577,6.6v5.47c-.139-.012-.28-.019-.423-.019H4.78c-.142,0-.283.007-.423.019V10.36a6.6,6.6,0,0,1,6.577-6.6Zm0-2.349A1.41,1.41,0,0,1,12.3,2.466a7.98,7.98,0,0,0-2.723,0,1.41,1.41,0,0,1,1.362-1.06Zm0,21.188a1.982,1.982,0,0,1-1.849-1.282h3.7A1.982,1.982,0,0,1,10.934,22.594Zm0,0" transform="translate(0 0)" fill="#fff"/></svg>