<svg xmlns="http://www.w3.org/2000/svg" width="23.641" height="18.498" viewBox="0 0 23.641 18.498">
  <g id="inbox" transform="translate(0.25 -56.652)">
    <g id="Group_879" data-name="Group 879" transform="translate(8.321 69.369)">
      <g id="Group_878" data-name="Group 878">
        <path id="Path_152" data-name="Path 152" d="M189.906,332.734h-5.1a.7.7,0,0,0-.7.7V335a.7.7,0,0,0,.7.7h5.1a.7.7,0,0,0,.7-.7v-1.565A.7.7,0,0,0,189.906,332.734Zm-.2,2.064H185v-1.167h4.705Z" transform="translate(-184.105 -332.734)" fill="#d8d8d8" stroke="#d8d8d8" stroke-width="0.5"/>
      </g>
    </g>
    <g id="Group_881" data-name="Group 881" transform="translate(0 56.902)">
      <g id="Group_880" data-name="Group 880" transform="translate(0 0)">
        <path id="Path_153" data-name="Path 153" d="M22.914,65.492l.007,0L19.558,58.84a1.58,1.58,0,0,0-1.417-.871H17.5V57.35a.448.448,0,0,0-.448-.448H6.087a.448.448,0,0,0-.448.448v.618H5a1.58,1.58,0,0,0-1.417.871L.22,65.488l.007,0A1.561,1.561,0,0,0,0,66.3v7.024A1.572,1.572,0,0,0,1.571,74.9h20a1.572,1.572,0,0,0,1.571-1.571V66.3A1.561,1.561,0,0,0,22.914,65.492ZM17.5,58.965h.639a.588.588,0,0,1,.528.324l2.754,5.445H19.55V63.059a.448.448,0,0,0-.448-.448h-.555V60.2a.448.448,0,0,0-.448-.448h-.6Zm1.151,4.542v1.227H16.287a1.036,1.036,0,0,0-.943.609L14.7,66.777a.038.038,0,0,1-.035.022H8.478a.038.038,0,0,1-.035-.022L7.8,65.344a1.036,1.036,0,0,0-.943-.609H4.488V63.507ZM6.536,57.8h10.07v1.957H6.536ZM17.65,60.653V62.61H5.491V60.653H17.65ZM4.472,59.29A.588.588,0,0,1,5,58.965h.639v.791h-.6a.448.448,0,0,0-.448.448V62.61H4.039a.448.448,0,0,0-.448.448v1.675H1.718ZM21.571,73.9h-20A.575.575,0,0,1,1,73.329V66.3a.575.575,0,0,1,.574-.574H6.854a.038.038,0,0,1,.035.022l.646,1.433a1.036,1.036,0,0,0,.943.609h6.185a1.036,1.036,0,0,0,.943-.609l.646-1.433h0a.038.038,0,0,1,.035-.022H21.57a.575.575,0,0,1,.574.574v7.024h0A.575.575,0,0,1,21.571,73.9Z" transform="translate(0 -56.902)" fill="#d8d8d8" stroke="#d8d8d8" stroke-width="0.5"/>
      </g>
    </g>
  </g>
</svg>
