<svg xmlns="http://www.w3.org/2000/svg" width="71.787" height="72" viewBox="0 0 71.787 72"><g transform="translate(-680 -263)"><path d="M609.693,109.845s28.392-10.146,43.1-.717c-3.341-7.814-10.137-11.894-27.367-10.688s-24.913,9.359-24.913,9.359l-1.958,3.72s.759,1.428,1.027,1.473a13.263,13.263,0,0,0,3.258,0,10.871,10.871,0,0,1,2.053-.759C605.877,111.876,609.693,109.845,609.693,109.845Z" transform="translate(88.458 167.517)" fill="#de4d4d"/><path d="M594.388,119.068c-1.592,2.6,1.205,2.544,2.946,2.1a16.169,16.169,0,0,0,3.3-1.339c.536-.223,2.009-.937,2.634,1.339s.223,7.321-3.214,9.2a24.313,24.313,0,0,1-9.865,3.169c-2.857.134-3.893-.186-2.232-4.2A35.205,35.205,0,0,1,594.388,119.068Z" transform="translate(94.636 156.218)" fill="#ff6060"/><path d="M583.234,154.027s4.679-9.7,31.353-15c25.792-4.119,32.429-.021,38,7.233s-.628,17.022-.628,17.022.522-9.633-14.565-11.722-50.775,6.209-50.775,6.209a2.22,2.22,0,0,1-2.437-.464A5.7,5.7,0,0,1,583.234,154.027Z" transform="translate(96.767 146.282)" fill="#007bcc"/><path d="M605.135,97.052c2.816-1.545,7.031-3.338,12.021-2.271,7.208,1.791,4.7,10.063,2.615,13.365a52.723,52.723,0,0,1-16.936,16.232c-9.106,5.356-19.373,9.061-19.6,5.178a32.561,32.561,0,0,0,2.668,12.581c2.143,4.91,6.175,3.022,9,2.266,6.274-1.681,27.519-13.615,37.558-30.559,8.53-17.176-4.41-20.368-9.807-21.239A32.234,32.234,0,0,0,602,96.318c-7.254,4.178,0,3.83,0,3.83A3.587,3.587,0,0,0,605.135,97.052Z" transform="translate(96.768 170.773)" fill="#09f"/><path d="M608.048,210.038s-3.653-3.214,10.233-9.865,28.121-8.693,36.289-4.259,2.042,14.061,2.042,14.061l-7.993,1.634s3.835-4.172-1.9-5.447-30.153,7.122-33.015,7S608.048,210.038,608.048,210.038Z" transform="translate(83.547 115.827)" fill="#e3b455"/><path d="M650.6,105.051s15.812,8.461.886,28.518c-17.7,23.752-41.485,30.672-43.935,28.477,2.316,2.316,8.32,7.428,14.378,7.462s27.972-8.163,40.1-29.947S650.6,105.051,650.6,105.051Z" transform="translate(84.037 163.819)" fill="#fc6"/><path d="M694.473,168.05c.866,13.366-17.863,34.862-38.038,37.24,13.232.539,21.516-3.02,29.159-10.779S695.525,177.246,694.473,168.05Z" transform="translate(57.073 129.658)" fill="#9c6"/></g></svg>