<svg xmlns="http://www.w3.org/2000/svg" width="25.965" height="24" viewBox="0 0 25.965 24"><g transform="translate(0 -18.4)"><g transform="translate(0 18.4)"><path d="M21.117,24.617a7.416,7.416,0,0,0-2.344-4.263,7.569,7.569,0,0,0-9.152-.763,7.452,7.452,0,0,0-2.44,2.547,4.343,4.343,0,0,0-.79-.074,4.105,4.105,0,0,0-4.117,4.083,4.427,4.427,0,0,0,.085.847A5.666,5.666,0,0,0,0,31.574a6.045,6.045,0,0,0,1.554,4.019A5.562,5.562,0,0,0,5.4,37.51h4.634a.715.715,0,1,0,0-1.43H5.462a4.522,4.522,0,0,1-4.02-4.511,4.238,4.238,0,0,1,2.12-3.654.718.718,0,0,0,.315-.868,2.575,2.575,0,0,1-.16-.911A2.679,2.679,0,0,1,7.3,23.642a.726.726,0,0,0,.9-.365,6.1,6.1,0,0,1,5.5-3.458,6.029,6.029,0,0,1,6.049,5.443.716.716,0,0,0,.6.635,5.147,5.147,0,0,1-.491,10.177H15.927a.715.715,0,1,0,0,1.43h4.015a6.408,6.408,0,0,0,4.282-2.1,6.567,6.567,0,0,0-3.107-10.792Z" transform="translate(0 -18.4)" fill="#09f"/><path d="M167.385,190.621a.743.743,0,0,0,0-1.054l-3.946-3.946a.754.754,0,0,0-.524-.221.731.731,0,0,0-.524.221l-3.946,3.946a.748.748,0,0,0,.524,1.275.727.727,0,0,0,.524-.221l2.677-2.677v12.3a.745.745,0,0,0,1.49,0v-12.3l2.677,2.677A.736.736,0,0,0,167.385,190.621Z" transform="translate(-149.93 -176.991)" fill="#09f"/></g></g></svg>